<?xml version="1.0"?>
<svg viewBox="0 0 528 264" width="528" height="264" xmlns="http://www.w3.org/2000/svg" style="display: block; font-family: &#39;Helvetica Neue&#39;, Helvetica, Arial, sans-serif; fill: #0A0A0A;">
<defs>
<marker id="ah" markerUnits="userSpaceOnUse" markerWidth="8" markerHeight="6" refX="7.5" refY="3" orient="auto"><path d="M0,0 L8,3 L0,6 Z" fill="#0A0A0A"></path></marker>
<marker id="ahd" markerUnits="userSpaceOnUse" markerWidth="8" markerHeight="6" refX="7.5" refY="3" orient="auto"><path d="M0,0 L8,3 L0,6 Z" fill="#0A0A0A"></path></marker>
</defs>
<rect x="0" y="0" width="528" height="264" fill="#FFFFFF"></rect>

<g stroke="#0A0A0A" stroke-width="1.2" fill="#F1F1F1">
<rect x="18" y="12" width="88" height="26" rx="4"></rect>
<rect x="18" y="60" width="88" height="26" rx="4"></rect>
<rect x="18" y="96" width="88" height="26" rx="4"></rect>
<rect x="18" y="138" width="88" height="26" rx="4"></rect>
<rect x="18" y="170" width="88" height="26" rx="4"></rect>
<rect x="18" y="202" width="88" height="26" rx="4"></rect>
</g>
<g font-size="12" text-anchor="middle">
<text x="62" y="29">Noisy chunk</text>
<text x="62" y="77">Self audio</text>
<text x="62" y="113">Other audio</text>
<text x="62" y="155">Reference</text>
<text x="62" y="187">Timestep t</text>
<text x="62" y="219">Motion history</text>
</g>

<rect x="12" y="46" width="224" height="86" rx="6" fill="none" stroke="#0A0A0A" stroke-width="1.2" stroke-dasharray="4 3"></rect>
<text x="18" y="57" font-size="10.67">Audio conditioning</text>

<g fill="#FFFFFF" stroke="#0A0A0A" stroke-width="1.2">
<rect x="116" y="60" width="64" height="26" rx="4"></rect>
<rect x="116" y="96" width="64" height="26" rx="4"></rect>
<rect x="116" y="138" width="64" height="26" rx="4"></rect>
<rect x="116" y="170" width="64" height="26" rx="4"></rect>
<rect x="190" y="60" width="42" height="62" rx="4"></rect>
</g>
<g font-size="10.67" text-anchor="middle">
<text x="148" y="72">Audio</text>
<text x="148" y="83">encoder</text>
<text x="148" y="108">Audio</text>
<text x="148" y="119">encoder</text>
<text x="148" y="187">Embedding</text>
<text x="211" y="87">Audio</text>
<text x="211" y="98">gate</text>
</g>
<text x="148" y="155" font-size="12" text-anchor="middle">MLP</text>

<rect x="248" y="12" width="122" height="222" rx="8" fill="#B1E5DB" stroke="#0A0A0A" stroke-width="1.8"></rect>
<text x="309" y="32" font-size="12" text-anchor="middle">Transformer decoder</text>
<g fill="#FFFFFF" stroke="#0A0A0A" stroke-width="1.2">
<rect x="254" y="48" width="110" height="36" rx="6"></rect>
<rect x="254" y="94" width="110" height="36" rx="6"></rect>
<rect x="254" y="140" width="110" height="28" rx="6"></rect>
</g>
<g font-size="13.33" text-anchor="middle">
<text x="309" y="65">Gated</text>
<text x="309" y="79">self-attention</text>
<text x="309" y="111">Conditioning</text>
<text x="309" y="125">cross-attention</text>
<text x="309" y="159">Feed-forward</text>
</g>
<text x="309" y="190" font-size="10.67" text-anchor="middle">AdaLN(t) modulation</text>
<text x="309" y="214" font-size="12" text-anchor="middle">× 18 layers</text>

<text x="420" y="74" font-size="12" text-anchor="middle">Regional heads</text>
<g fill="#D9D9E5" stroke="#0A0A0A" stroke-width="1.2">
<rect x="379" y="80" width="72" height="106" rx="8"></rect>
<rect x="382" y="83" width="72" height="106" rx="8"></rect>
<rect x="385" y="86" width="72" height="106" rx="8"></rect>
<rect x="388" y="89" width="72" height="106" rx="8"></rect>
</g>
<g fill="#FFFFFF" stroke="#0A0A0A" stroke-width="1.2">
<rect x="394" y="97" width="60" height="26" rx="6"></rect>
<rect x="394" y="129" width="60" height="26" rx="6"></rect>
<rect x="394" y="161" width="60" height="26" rx="6"></rect>
</g>
<g font-size="12" text-anchor="middle">
<text x="424" y="114">Linear</text>
<text x="424" y="146">RMS norm</text>
<text x="424" y="178">Linear</text>
</g>
<text x="420" y="212" font-size="12" text-anchor="middle">× 4 in parallel</text>

<rect x="470" y="128" width="46" height="26" rx="4" fill="#FFFFFF" stroke="#0A0A0A" stroke-width="1.2"></rect>
<text x="493" y="145" font-size="10.67" text-anchor="middle">Concat</text>
<rect x="470" y="170" width="46" height="32" rx="4" fill="#F1F1F1" stroke="#0A0A0A" stroke-width="1.2"></rect>
<text x="493" y="190" font-size="10.67" text-anchor="middle">Velocity</text>

<g stroke="#0A0A0A" stroke-width="1.4" fill="none" marker-end="url(#ah)">
<path d="M106,25 L247,25"></path>
<path d="M106,73 L115,73"></path>
<path d="M106,109 L115,109"></path>
<path d="M180,73 L189,73"></path>
<path d="M180,109 L189,109"></path>
<path d="M232,73 L247,73"></path>
<path d="M232,109 L247,109"></path>
<path d="M106,151 L115,151"></path>
<path d="M180,151 L247,151"></path>
<path d="M106,183 L115,183"></path>
<path d="M106,205 L247,205"></path>
<path d="M106,225 L247,225"></path>
<path d="M370,142 L387,142"></path>
<path d="M460,142 L469,142"></path>
<path d="M493,154 L493,169"></path>
</g>
<path d="M180,183 L247,183" stroke="#0A0A0A" stroke-width="1.4" fill="none" marker-end="url(#ah)"></path>
<text x="205" y="201" font-size="10.67" text-anchor="middle">far</text>
<text x="205" y="221" font-size="10.67" text-anchor="middle">near</text>

<path d="M493,202 L493,240 L62,240 L62,229" stroke="#0A0A0A" stroke-width="1.4" fill="none" stroke-dasharray="4 3" marker-end="url(#ahd)"></path>
<text x="280" y="252" font-size="10.67" text-anchor="middle">clean motion appended to history</text>
</svg>